<svg xmlns="http://www.w3.org/2000/svg" viewBox="0 0 32 32" id="report">
  <path fill="#e0e0e2" d="M27.5,7.915V29.5a2,2,0,0,1-2,2H6.5a2,2,0,0,1-2-2V2.5a2,2,0,0,1,2-2H20.085a1,1,0,0,1,.707.293l6.415,6.415A1,1,0,0,1,27.5,7.915Z"></path>
  <path fill="#57565c" d="M27.357 7.5H22.5a2 2 0 0 1-2-2V.641zM8.5 7a.516.516 0 0 1-.115-.014.5.5 0 0 1-.332-.263l-1-2a.5.5 0 1 1 .895-.447L8.68 5.74 12.2 3.1a.5.5 0 1 1 .6.8l-4 3A.5.5 0 0 1 8.5 7zM8.5 14a.516.516 0 0 1-.115-.014.5.5 0 0 1-.332-.263l-1-2a.5.5 0 0 1 .895-.447L8.68 12.74 12.2 10.1a.5.5 0 1 1 .6.8l-4 3A.5.5 0 0 1 8.5 14zM8.5 21a.516.516 0 0 1-.115-.014.5.5 0 0 1-.332-.263l-1-2a.5.5 0 0 1 .895-.447L8.68 19.74 12.2 17.1a.5.5 0 1 1 .6.8l-4 3A.5.5 0 0 1 8.5 21zM7.5 29a.5.5 0 0 1-.313-.891l5-4a.5.5 0 1 1 .625.781l-5 4A.5.5 0 0 1 7.5 29z"></path>
  <path fill="#57565c" d="M12.5 29a.5.5 0 0 1-.313-.109l-5-4a.5.5 0 0 1 .625-.781l5 4A.5.5 0 0 1 12.5 29zM18.5 5h-4a.5.5 0 0 1 0-1h4a.5.5 0 0 1 0 1zM18.5 7h-4a.5.5 0 0 1 0-1h4a.5.5 0 0 1 0 1zM24.5 12h-10a.5.5 0 0 1 0-1h10a.5.5 0 0 1 0 1zM24.5 14h-10a.5.5 0 0 1 0-1h10a.5.5 0 0 1 0 1zM24.5 19h-10a.5.5 0 0 1 0-1h10a.5.5 0 0 1 0 1zM24.5 21h-10a.5.5 0 0 1 0-1h10a.5.5 0 0 1 0 1zM24.5 26h-10a.5.5 0 0 1 0-1h10a.5.5 0 0 1 0 1zM24.5 28h-10a.5.5 0 0 1 0-1h10a.5.5 0 0 1 0 1z"></path>
</svg>
